# xmcd
#
# Track frame offsets:
#	150
#	21529
#	38258
#	60011
#	80319
#	93101
#	115054
#	132752
#	153590
#	174436
#	193623
#	210149
#	224452
#
# Disc length: 3236 seconds
#
# Revision: 12
# Processed by: cddbd v1.5.2PL0 Copyright (c) Steve Scherf et al.
# Submitted via: Jack! The Knife 20 Magnifico
#
DISCID=970ca20d
DTITLE=Anvil - Hope In Hell
DYEAR=2013
DGENRE=Heavy Metal
TTITLE0=Hope In Hell
TTITLE1=Eat Your Words
TTITLE2=Through With You
TTITLE3=The Fight Is Never Won
TTITLE4=Pay The Toll
TTITLE5=Flying
TTITLE6=Call Of Duty
TTITLE7=BadAss Rock'n'Roll
TTITLE8=Time Shows No Mercy
TTITLE9=Mankind Machine
TTITLE10=Shut The Fuck Up
TTITLE11=Hard Wired
TTITLE12=Fire At Will
EXTD=Bob Marlette
EXTT0=
EXTT1=
EXTT2=
EXTT3=
EXTT4=
EXTT5=
EXTT6=
EXTT7=
EXTT8=
EXTT9=
EXTT10=
EXTT11=
EXTT12=
PLAYORDER=
